# xmcd
#
# Track frame offsets:
#	150
#	23525
#	41372
#	58585
#	79962
#	99965
#	118757
#	136362
#	152172
#	171547
#
# Disc length: 2518 seconds
#
# Revision: 11
# Processed by: cddbd v1.5.2PL0 Copyright (c) Steve Scherf et al.
# Submitted via: MusicWizard 7.2.1
#
DISCID=7c09d40a
DTITLE=Juliane Werding - Tarot
DYEAR=1988
DGENRE=Deutscher Rock Pop
TTITLE0=Starke Gefühle
TTITLE1=Zeit Ist Ein Eisernes Tor
TTITLE2=Nie Mehr
TTITLE3=Es Wird Zeit
TTITLE4=Tarot
TTITLE5=Ihr Seid Nicht Allein
TTITLE6=Nebelmond
TTITLE7=Heute Nicht
TTITLE8=Halt Mich Fest, Liebster
TTITLE9=Träume Bleiben Jung
EXTD=YEAR - 1988
EXTT0=
EXTT1=
EXTT2=
EXTT3=
EXTT4=
EXTT5=
EXTT6=
EXTT7=
EXTT8=
EXTT9=
PLAYORDER=
